<svg width="448" height="192" viewBox="0 0 448 192" fill="none" xmlns="http://www.w3.org/2000/svg">
<line x1="2.5" y1="128" x2="2.50001" y2="-1.09278e-07" stroke="#B18555" stroke-width="5"/>
<line y1="2.5" x2="128" y2="2.5" stroke="#B18555" stroke-width="5"/>
<line x1="445.5" y1="64" x2="445.5" y2="192" stroke="#B18555" stroke-width="5"/>
<line x1="448" y1="189.5" x2="320" y2="189.5" stroke="#B18555" stroke-width="5"/>
<path d="M50.776 96.248C50.776 92.984 51.528 90.056 53.032 87.464C54.568 84.872 56.632 82.856 59.224 81.416C61.848 79.944 64.712 79.208 67.816 79.208C71.368 79.208 74.52 80.088 77.272 81.848C80.056 83.576 82.072 86.04 83.32 89.24H76.744C75.88 87.48 74.68 86.168 73.144 85.304C71.608 84.44 69.832 84.008 67.816 84.008C65.608 84.008 63.64 84.504 61.912 85.496C60.184 86.488 58.824 87.912 57.832 89.768C56.872 91.624 56.392 93.784 56.392 96.248C56.392 98.712 56.872 100.872 57.832 102.728C58.824 104.584 60.184 106.024 61.912 107.048C63.64 108.04 65.608 108.536 67.816 108.536C69.832 108.536 71.608 108.104 73.144 107.24C74.68 106.376 75.88 105.064 76.744 103.304H83.32C82.072 106.504 80.056 108.968 77.272 110.696C74.52 112.424 71.368 113.288 67.816 113.288C64.68 113.288 61.816 112.568 59.224 111.128C56.632 109.656 54.568 107.624 53.032 105.032C51.528 102.44 50.776 99.512 50.776 96.248ZM105.197 108.584H116.477V113H99.725V79.64H105.197V108.584ZM136.525 84.056V93.848H148.045V98.312H136.525V108.536H149.485V113H131.053V79.592H149.485V84.056H136.525ZM186.337 106.184H172.369L169.969 113H164.257L176.209 79.592H182.545L194.497 113H188.737L186.337 106.184ZM184.801 101.72L179.377 86.216L173.905 101.72H184.801ZM237.102 113H231.63L215.166 88.088V113H209.694V79.592H215.166L231.63 104.456V79.592H237.102V113ZM281.696 113H276.224L259.76 88.088V113H254.288V79.592H259.76L276.224 104.456V79.592H281.696V113ZM304.353 84.056V93.848H315.873V98.312H304.353V108.536H317.313V113H298.881V79.592H317.313V84.056H304.353ZM345.045 113.336C342.805 113.336 340.789 112.952 338.997 112.184C337.205 111.384 335.797 110.264 334.773 108.824C333.749 107.384 333.237 105.704 333.237 103.784H339.093C339.221 105.224 339.781 106.408 340.773 107.336C341.797 108.264 343.221 108.728 345.045 108.728C346.933 108.728 348.405 108.28 349.461 107.384C350.517 106.456 351.045 105.272 351.045 103.832C351.045 102.712 350.709 101.8 350.037 101.096C349.397 100.392 348.581 99.848 347.589 99.464C346.629 99.08 345.285 98.664 343.557 98.216C341.381 97.64 339.605 97.064 338.229 96.488C336.885 95.88 335.733 94.952 334.773 93.704C333.813 92.456 333.333 90.792 333.333 88.712C333.333 86.792 333.813 85.112 334.773 83.672C335.733 82.232 337.077 81.128 338.805 80.36C340.533 79.592 342.533 79.208 344.805 79.208C348.037 79.208 350.677 80.024 352.725 81.656C354.805 83.256 355.957 85.464 356.181 88.28H350.133C350.037 87.064 349.461 86.024 348.405 85.16C347.349 84.296 345.957 83.864 344.229 83.864C342.661 83.864 341.381 84.264 340.389 85.064C339.397 85.864 338.901 87.016 338.901 88.52C338.901 89.544 339.205 90.392 339.813 91.064C340.453 91.704 341.253 92.216 342.213 92.6C343.173 92.984 344.485 93.4 346.149 93.848C348.357 94.456 350.149 95.064 351.525 95.672C352.933 96.28 354.117 97.224 355.077 98.504C356.069 99.752 356.565 101.432 356.565 103.544C356.565 105.24 356.101 106.84 355.173 108.344C354.277 109.848 352.949 111.064 351.189 111.992C349.461 112.888 347.413 113.336 345.045 113.336ZM384.014 113.336C381.774 113.336 379.758 112.952 377.966 112.184C376.174 111.384 374.766 110.264 373.742 108.824C372.718 107.384 372.206 105.704 372.206 103.784H378.062C378.19 105.224 378.75 106.408 379.742 107.336C380.766 108.264 382.19 108.728 384.014 108.728C385.902 108.728 387.374 108.28 388.43 107.384C389.486 106.456 390.014 105.272 390.014 103.832C390.014 102.712 389.678 101.8 389.006 101.096C388.366 100.392 387.55 99.848 386.558 99.464C385.598 99.08 384.254 98.664 382.526 98.216C380.35 97.64 378.574 97.064 377.198 96.488C375.854 95.88 374.702 94.952 373.742 93.704C372.782 92.456 372.302 90.792 372.302 88.712C372.302 86.792 372.782 85.112 373.742 83.672C374.702 82.232 376.046 81.128 377.774 80.36C379.502 79.592 381.502 79.208 383.774 79.208C387.006 79.208 389.646 80.024 391.694 81.656C393.774 83.256 394.926 85.464 395.15 88.28H389.102C389.006 87.064 388.43 86.024 387.374 85.16C386.318 84.296 384.926 83.864 383.198 83.864C381.63 83.864 380.35 84.264 379.358 85.064C378.366 85.864 377.87 87.016 377.87 88.52C377.87 89.544 378.174 90.392 378.782 91.064C379.422 91.704 380.222 92.216 381.182 92.6C382.142 92.984 383.454 93.4 385.118 93.848C387.326 94.456 389.118 95.064 390.494 95.672C391.902 96.28 393.086 97.224 394.046 98.504C395.038 99.752 395.534 101.432 395.534 103.544C395.534 105.24 395.07 106.84 394.142 108.344C393.246 109.848 391.918 111.064 390.158 111.992C388.43 112.888 386.382 113.336 384.014 113.336Z" fill="black"/>
</svg>
