<svg width="27" height="26" viewBox="0 0 27 26" fill="none" xmlns="http://www.w3.org/2000/svg">
<g clip-path="url(#clip0_393_501)">
<path d="M13.5611 0.0664368C6.42172 0.0664368 0.640411 5.86068 0.640411 13C0.640411 20.1393 6.42172 25.9336 13.5611 25.9336C20.7133 25.9336 26.5076 20.1393 26.5076 13C26.5076 5.86068 20.7133 0.0664368 13.5611 0.0664368ZM13.574 23.3469C7.85735 23.3469 3.22713 18.7167 3.22713 13C3.22713 7.28337 7.85735 2.65315 13.574 2.65315C19.2906 2.65315 23.9209 7.28337 23.9209 13C23.9209 18.7167 19.2906 23.3469 13.574 23.3469ZM14.2207 6.53323H12.2806V14.2934L19.0708 18.3674L20.0408 16.7766L14.2207 13.3234V6.53323Z" fill="#007CFB"/>
</g>
<defs>
<clipPath id="clip0_393_501">
<rect width="25.8672" height="25.8672" fill="white" transform="translate(0.640411 0.0664368)"/>
</clipPath>
</defs>
</svg>
