<svg width="33" height="32" viewBox="0 0 33 32" fill="none" xmlns="http://www.w3.org/2000/svg">
<path d="M16.5076 29.3333C14.6853 29.3333 12.9631 28.9831 11.3409 28.2827C9.71867 27.5822 8.30178 26.6267 7.09023 25.416C5.87956 24.2053 4.924 22.7889 4.22356 21.1667C3.52312 19.5444 3.17334 17.8222 3.17423 16C3.17423 14.1555 3.52445 12.4275 4.22489 10.816C4.92534 9.20444 5.88089 7.79377 7.09156 6.58399C8.30223 5.37243 9.71823 4.41688 11.3396 3.71732C12.9609 3.01777 14.6836 2.66755 16.5076 2.66666C18.352 2.66666 20.08 3.01688 21.6916 3.71732C23.3031 4.41777 24.7138 5.37332 25.9236 6.58399C27.1351 7.79466 28.0907 9.20577 28.7902 10.8173C29.4898 12.4289 29.84 14.1564 29.8409 16V17.9333C29.8409 19.2444 29.3911 20.3613 28.4916 21.284C27.592 22.2067 26.4862 22.6675 25.1742 22.6667C24.3742 22.6667 23.6298 22.4889 22.9409 22.1333C22.252 21.7778 21.6853 21.3111 21.2409 20.7333C20.6409 21.3333 19.9351 21.8058 19.1236 22.1507C18.312 22.4955 17.44 22.6675 16.5076 22.6667C14.6631 22.6667 13.0907 22.0164 11.7902 20.716C10.4898 19.4155 9.84 17.8435 9.84089 16C9.84089 14.1555 10.4911 12.5831 11.7916 11.2827C13.092 9.98221 14.664 9.33243 16.5076 9.33332C18.352 9.33332 19.9244 9.98355 21.2249 11.284C22.5253 12.5844 23.1751 14.1564 23.1742 16V17.9333C23.1742 18.5778 23.3742 19.0831 23.7742 19.4493C24.1742 19.8155 24.6409 19.9991 25.1742 20C25.7076 20 26.1742 19.8164 26.5742 19.4493C26.9742 19.0822 27.1742 18.5769 27.1742 17.9333V16C27.1742 13.0889 26.124 10.5831 24.0236 8.48266C21.9231 6.38221 19.4178 5.33243 16.5076 5.33332C13.5964 5.33332 11.0907 6.38355 8.99023 8.48399C6.88978 10.5844 5.84 13.0898 5.84089 16C5.84089 18.9111 6.89112 21.4169 8.99156 23.5173C11.092 25.6178 13.5973 26.6675 16.5076 26.6667H23.1742V29.3333H16.5076ZM16.5076 20C17.6187 20 18.5631 19.6111 19.3409 18.8333C20.1187 18.0555 20.5076 17.1111 20.5076 16C20.5076 14.8889 20.1187 13.9444 19.3409 13.1667C18.5631 12.3889 17.6187 12 16.5076 12C15.3964 12 14.452 12.3889 13.6742 13.1667C12.8964 13.9444 12.5076 14.8889 12.5076 16C12.5076 17.1111 12.8964 18.0555 13.6742 18.8333C14.452 19.6111 15.3964 20 16.5076 20Z" fill="#007CFB"/>
</svg>
