<svg width="32" height="32" viewBox="0 0 32 32" fill="none" xmlns="http://www.w3.org/2000/svg">
<path d="M16 29.3334C14.1777 29.3334 12.4555 28.9832 10.8333 28.2827C9.21107 27.5823 7.79418 26.6267 6.58263 25.4161C5.37196 24.2054 4.41641 22.789 3.71596 21.1667C3.01552 19.5445 2.66574 17.8223 2.66663 16.0001C2.66663 14.1556 3.01685 12.4276 3.71729 10.8161C4.41774 9.20453 5.37329 7.79386 6.58396 6.58408C7.79463 5.37253 9.21063 4.41697 10.832 3.71741C12.4533 3.01786 14.176 2.66764 16 2.66675C17.8444 2.66675 19.5724 3.01697 21.184 3.71741C22.7955 4.41786 24.2062 5.37341 25.416 6.58408C26.6275 7.79475 27.5831 9.20586 28.2826 10.8174C28.9822 12.429 29.3324 14.1565 29.3333 16.0001V17.9334C29.3333 19.2445 28.8835 20.3614 27.984 21.2841C27.0844 22.2067 25.9786 22.6676 24.6666 22.6667C23.8666 22.6667 23.1222 22.489 22.4333 22.1334C21.7444 21.7779 21.1777 21.3112 20.7333 20.7334C20.1333 21.3334 19.4275 21.8059 18.616 22.1507C17.8044 22.4956 16.9324 22.6676 16 22.6667C14.1555 22.6667 12.5831 22.0165 11.2826 20.7161C9.98218 19.4156 9.33241 17.8436 9.33329 16.0001C9.33329 14.1556 9.98352 12.5832 11.284 11.2827C12.5844 9.9823 14.1564 9.33253 16 9.33341C17.8444 9.33341 19.4169 9.98364 20.7173 11.2841C22.0177 12.5845 22.6675 14.1565 22.6666 16.0001V17.9334C22.6666 18.5779 22.8666 19.0832 23.2666 19.4494C23.6666 19.8156 24.1333 19.9992 24.6666 20.0001C25.2 20.0001 25.6666 19.8165 26.0666 19.4494C26.4666 19.0823 26.6666 18.577 26.6666 17.9334V16.0001C26.6666 13.089 25.6164 10.5832 23.516 8.48275C21.4155 6.3823 18.9102 5.33253 16 5.33341C13.0888 5.33341 10.5831 6.38364 8.48263 8.48408C6.38218 10.5845 5.33241 13.0899 5.33329 16.0001C5.33329 18.9112 6.38352 21.417 8.48396 23.5174C10.5844 25.6179 13.0897 26.6676 16 26.6667H22.6666V29.3334H16ZM16 20.0001C17.1111 20.0001 18.0555 19.6112 18.8333 18.8334C19.6111 18.0556 20 17.1112 20 16.0001C20 14.889 19.6111 13.9445 18.8333 13.1667C18.0555 12.389 17.1111 12.0001 16 12.0001C14.8888 12.0001 13.9444 12.389 13.1666 13.1667C12.3889 13.9445 12 14.889 12 16.0001C12 17.1112 12.3889 18.0556 13.1666 18.8334C13.9444 19.6112 14.8888 20.0001 16 20.0001Z" fill="#8CD102"/>
</svg>
