<?xml version="1.0" standalone="no"?>
<!DOCTYPE svg PUBLIC "-//W3C//DTD SVG 20010904//EN"
 "http://www.w3.org/TR/2001/REC-SVG-20010904/DTD/svg10.dtd">
<svg version="1.0" xmlns="http://www.w3.org/2000/svg"
 width="512.000000pt" height="512.000000pt" viewBox="0 0 512.000000 512.000000"
 preserveAspectRatio="xMidYMid meet">

<g transform="translate(0.000000,512.000000) scale(0.100000,-0.100000)"
fill="#000000" stroke="none">
<path d="M894 4338 c-90 -29 -183 -140 -204 -244 -7 -34 -10 -186 -8 -441 l3
-388 27 -51 c27 -51 72 -97 115 -117 22 -10 23 -16 23 -113 l0 -102 -67 -7
c-213 -21 -420 -94 -585 -206 -93 -64 -109 -103 -62 -158 37 -45 72 -41 156
15 96 64 222 121 336 151 85 23 117 26 257 26 141 1 171 -2 257 -26 187 -50
335 -134 475 -270 143 -139 239 -302 290 -495 23 -84 26 -117 27 -252 0 -116
-5 -173 -18 -225 -10 -38 -20 -99 -23 -135 -4 -57 -2 -69 19 -99 50 -73 83
-83 335 -102 348 -26 784 21 1133 121 109 31 140 48 174 94 19 25 22 46 26
209 l5 182 108 3 c59 1 107 0 107 -3 0 -3 -9 -38 -20 -78 -30 -104 -29 -256 2
-362 29 -100 83 -197 149 -269 l51 -56 -1287 0 -1288 0 53 43 c152 123 270
338 301 549 75 510 -309 976 -828 1005 -528 30 -963 -408 -930 -936 15 -237
128 -464 309 -618 l50 -43 -152 0 -152 0 -29 -29 c-16 -16 -29 -39 -29 -51 0
-29 26 -76 45 -84 22 -8 5008 -8 5030 0 19 8 45 55 45 84 0 12 -13 35 -29 51
-28 28 -34 29 -116 29 l-87 0 44 45 c171 180 231 440 153 670 -35 104 -75 173
-145 249 l-56 61 17 85 c63 300 88 716 55 910 -23 134 -69 227 -144 286 -174
137 -594 278 -1177 393 -344 69 -565 103 -635 99 -62 -3 -74 -9 -233 -100
-145 -85 -168 -95 -175 -80 -18 34 -104 263 -101 266 2 1 64 24 138 51 158 58
185 77 185 130 0 43 -38 85 -77 85 -12 0 -182 -60 -376 -133 -262 -99 -359
-140 -369 -156 -23 -34 -17 -82 13 -108 33 -29 48 -29 129 2 36 14 95 36 130
49 l63 24 61 -153 61 -153 -38 -40 c-43 -45 -71 -115 -71 -176 1 -25 54 -203
133 -446 l133 -405 -75 -3 c-44 -2 -85 2 -97 9 -12 6 -42 48 -67 92 -110 199
-258 382 -430 533 l-78 68 28 14 c45 23 103 83 131 137 30 58 36 163 13 228
-22 63 -84 132 -148 163 l-58 29 -272 3 -272 3 -3 232 c-3 222 -4 234 -27 281
-51 104 -154 167 -269 165 -31 -1 -71 -6 -88 -11z m157 -175 c55 -33 59 -55
59 -346 l0 -264 26 -27 27 -26 306 0 c286 0 308 -1 338 -20 44 -26 66 -63 66
-111 0 -49 -26 -87 -74 -111 -31 -16 -74 -18 -452 -18 -453 0 -460 1 -485 55
-15 33 -17 733 -2 784 24 86 118 127 191 84z m2042 -593 c15 0 17 -13 17 -139
0 -219 43 -430 125 -607 39 -85 14 -73 370 -175 138 -39 251 -72 252 -73 2 -1
41 -132 87 -291 l84 -289 -61 -58 -62 -57 -287 -1 -286 0 -4 163 c-3 157 -4
164 -32 215 -61 109 -119 132 -341 132 l-163 0 -141 423 c-78 232 -141 432
-141 444 0 39 41 69 270 198 199 111 229 125 260 121 19 -3 43 -6 53 -6z m482
-91 c427 -86 829 -202 1009 -290 87 -42 166 -103 166 -127 0 -9 -41 -12 -140
-12 -136 0 -142 -1 -165 -25 -31 -30 -33 -83 -6 -116 18 -23 26 -24 188 -29
l168 -5 0 -205 c-1 -113 -7 -250 -14 -305 -14 -105 -46 -284 -53 -290 -2 -3
-38 7 -79 22 -130 46 -341 41 -459 -10 -12 -6 -31 48 -100 290 -52 181 -93
306 -105 320 -16 19 -76 40 -300 104 -202 58 -285 86 -297 100 -23 27 -72 181
-93 289 -8 47 -19 143 -22 214 l-6 129 54 -7 c30 -4 144 -25 254 -47z m-1880
-476 c114 -84 333 -304 406 -408 31 -44 82 -125 113 -180 31 -55 73 -114 92
-132 67 -60 91 -63 462 -63 l334 0 29 -29 29 -29 0 -141 0 -141 -535 0 -535 0
-6 28 c-94 423 -410 773 -821 911 -34 12 -103 29 -152 38 l-91 18 0 98 0 97
293 0 292 0 90 -67z m-610 -663 c199 -62 351 -191 440 -375 167 -345 42 -742
-295 -938 -131 -75 -335 -106 -490 -73 -256 54 -461 246 -541 506 -19 60 -23
98 -23 190 -1 137 16 209 76 330 34 68 60 103 133 175 116 116 208 167 365
201 89 19 245 11 335 -16z m3480 -395 c336 -88 490 -485 300 -772 -174 -262
-530 -311 -766 -105 -186 163 -226 450 -91 658 121 186 345 274 557 219z
m-1155 -385 l0 -150 -27 -11 c-45 -17 -301 -76 -403 -93 -241 -40 -486 -52
-715 -37 -207 14 -209 15 -200 49 26 101 37 172 42 275 l6 117 648 0 649 0 0
-150z"/>
<path d="M795 2036 c-192 -48 -317 -219 -302 -414 11 -140 93 -259 225 -324
62 -31 74 -33 167 -33 88 0 107 3 158 27 32 15 73 40 90 54 85 71 147 200 147
303 -1 188 -134 351 -318 390 -65 14 -102 13 -167 -3z m192 -184 c49 -26 77
-56 102 -112 39 -85 21 -169 -49 -241 -46 -48 -94 -69 -155 -69 -148 0 -260
153 -214 291 44 132 193 193 316 131z"/>
<path d="M4333 1776 c-96 -31 -178 -110 -214 -205 -28 -75 -24 -195 9 -262 36
-74 87 -125 160 -161 59 -29 76 -33 152 -33 73 0 93 4 142 28 34 17 77 50 107
83 153 168 98 436 -109 533 -66 30 -181 39 -247 17z m170 -170 c83 -34 125
-132 92 -214 -43 -106 -162 -143 -255 -79 -102 69 -89 236 22 290 40 20 98 22
141 3z"/>
</g>
</svg>
