<svg width="32" height="32" viewBox="0 0 32 32" fill="none" xmlns="http://www.w3.org/2000/svg">
<path d="M18.6353 4.81065C18.6706 4.67867 18.7315 4.55493 18.8147 4.44651C18.8978 4.33809 19.0015 4.24712 19.1198 4.17878C19.2381 4.11045 19.3687 4.0661 19.5042 4.04827C19.6397 4.03043 19.7773 4.03947 19.9093 4.07485C21.8373 4.57789 23.5963 5.58578 25.0053 6.99472C26.4142 8.40366 27.4221 10.1627 27.9252 12.0907C27.9605 12.2227 27.9696 12.3603 27.9517 12.4958C27.9339 12.6313 27.8895 12.7619 27.8212 12.8802C27.7529 12.9985 27.6619 13.1022 27.5535 13.1853C27.4451 13.2685 27.3213 13.3294 27.1893 13.3647C27.1015 13.3878 27.0111 13.3996 26.9202 13.3998C26.6911 13.3998 26.4683 13.3241 26.2866 13.1845C26.1049 13.0448 25.9743 12.8491 25.9153 12.6276C25.5051 11.0537 24.6825 9.61772 23.5324 8.46762C22.3823 7.31752 20.9463 6.49493 19.3724 6.08467C19.2403 6.0495 19.1164 5.98864 19.0078 5.90556C18.8993 5.82248 18.8081 5.71881 18.7397 5.60048C18.6712 5.48215 18.6268 5.35149 18.6088 5.21596C18.5909 5.08044 18.5999 4.94271 18.6353 4.81065ZM18.3324 10.2447C20.1251 10.7231 21.2769 11.8749 21.7553 13.6676C21.8143 13.8891 21.9448 14.0848 22.1265 14.2245C22.3083 14.3641 22.531 14.4398 22.7602 14.4398C22.851 14.4396 22.9415 14.4278 23.0293 14.4047C23.1613 14.3694 23.285 14.3085 23.3935 14.2253C23.5019 14.1422 23.5928 14.0385 23.6612 13.9202C23.7295 13.8019 23.7739 13.6713 23.7917 13.5358C23.8095 13.4003 23.8005 13.2627 23.7651 13.1307C23.0995 10.6399 21.3601 8.90049 18.8693 8.23489C18.7373 8.19963 18.5997 8.19072 18.4643 8.20865C18.3289 8.22658 18.1983 8.27101 18.0801 8.33939C17.9618 8.40778 17.8582 8.49879 17.7751 8.60722C17.6921 8.71565 17.6312 8.83938 17.5959 8.97134C17.5606 9.10331 17.5517 9.24093 17.5697 9.37634C17.5876 9.51175 17.632 9.64231 17.7004 9.76055C17.7688 9.87879 17.8598 9.98241 17.9682 10.0655C18.0767 10.1486 18.2004 10.2095 18.3324 10.2447ZM28.9847 22.6403C28.7529 24.4019 27.8878 26.0188 26.5509 27.1892C25.2141 28.3595 23.4969 29.0032 21.7202 29C11.3981 29 3.00001 20.6019 3.00001 10.2798C2.99683 8.50307 3.64051 6.78592 4.81084 5.44908C5.98117 4.11225 7.59812 3.24714 9.35967 3.01534C9.80513 2.96095 10.2562 3.05208 10.6456 3.27513C11.035 3.49818 11.3419 3.84119 11.5203 4.25295L14.2659 10.3825V10.3981C14.4025 10.7133 14.459 11.0574 14.4301 11.3997C14.4013 11.7421 14.2882 12.0719 14.1008 12.3598C14.0774 12.3949 14.0527 12.4274 14.0267 12.4599L11.3201 15.6684C12.2938 17.647 14.3634 19.6984 16.368 20.6747L19.5323 17.9824C19.5633 17.9563 19.5959 17.932 19.6298 17.9096C19.9175 17.7177 20.2484 17.6006 20.5928 17.5688C20.9371 17.537 21.2839 17.5916 21.6019 17.7276L21.6188 17.7354L27.7432 20.4797C28.1556 20.6575 28.4995 20.9641 28.7233 21.3535C28.9471 21.743 29.0388 22.1944 28.9847 22.6403ZM26.9202 22.3803H26.9059L20.7959 19.6438L17.6304 22.3361C17.5996 22.3621 17.5675 22.3864 17.5342 22.4089C17.2348 22.6086 16.8888 22.7272 16.53 22.7532C16.1711 22.7792 15.8116 22.7116 15.4866 22.5571C13.0517 21.3806 10.6246 18.9717 9.44677 16.5628C9.29081 16.2402 9.22082 15.8828 9.2436 15.5252C9.26638 15.1676 9.38114 14.8219 9.57678 14.5217C9.59883 14.4865 9.6236 14.453 9.65088 14.4216L12.3601 11.2093L9.63008 5.09926C9.62956 5.09407 9.62956 5.08884 9.63008 5.08366C8.36939 5.24811 7.21189 5.86648 6.37434 6.82296C5.53679 7.77945 5.07663 9.00845 5.08003 10.2798C5.08485 14.6916 6.83955 18.9213 9.95914 22.0409C13.0787 25.1604 17.3084 26.9151 21.7202 26.92C22.9908 26.9243 24.2194 26.4658 25.1765 25.63C26.1335 24.7943 26.7534 23.6386 26.9202 22.379V22.3803Z" fill="#8CD102"/>
</svg>
