<svg width="27" height="26" viewBox="0 0 27 26" fill="none" xmlns="http://www.w3.org/2000/svg">
<g clip-path="url(#clip0_393_499)">
<path d="M16.3289 1.86792C16.364 1.7366 16.4247 1.6135 16.5074 1.50563C16.5901 1.39777 16.6933 1.30726 16.811 1.23928C16.9287 1.1713 17.0586 1.12717 17.1934 1.10943C17.3282 1.09169 17.4651 1.10067 17.5964 1.13587C19.5145 1.63634 21.2646 2.63907 22.6663 4.0408C24.0681 5.44254 25.0708 7.19259 25.5713 9.11072C25.6065 9.24202 25.6154 9.37896 25.5977 9.51372C25.58 9.64849 25.5358 9.77844 25.4679 9.89615C25.3999 10.0139 25.3094 10.117 25.2015 10.1997C25.0936 10.2824 24.9705 10.3431 24.8392 10.3782C24.7518 10.4012 24.6619 10.4129 24.5715 10.4131C24.3435 10.4131 24.1219 10.3378 23.9411 10.1989C23.7603 10.06 23.6304 9.8652 23.5717 9.64488C23.1636 8.07904 22.3452 6.65038 21.201 5.50616C20.0568 4.36195 18.6281 3.54358 17.0623 3.13541C16.9308 3.10042 16.8076 3.03987 16.6996 2.95722C16.5916 2.87456 16.5009 2.77142 16.4328 2.6537C16.3647 2.53598 16.3205 2.40598 16.3026 2.27115C16.2848 2.13632 16.2937 1.99929 16.3289 1.86792ZM16.0276 7.27416C17.8111 7.75011 18.957 8.89603 19.433 10.6796C19.4917 10.8999 19.6215 11.0946 19.8023 11.2336C19.9831 11.3725 20.2047 11.4478 20.4327 11.4478C20.5231 11.4476 20.6131 11.4359 20.7005 11.4129C20.8318 11.3778 20.9549 11.3171 21.0628 11.2344C21.1706 11.1517 21.2611 11.0485 21.3291 10.9308C21.3971 10.8131 21.4412 10.6832 21.459 10.5484C21.4767 10.4136 21.4677 10.2767 21.4325 10.1454C20.7703 7.66734 19.0398 5.93682 16.5617 5.27462C16.4304 5.23955 16.2935 5.23068 16.1588 5.24852C16.0241 5.26636 15.8942 5.31056 15.7766 5.37859C15.6589 5.44663 15.5558 5.53717 15.4732 5.64505C15.3905 5.75292 15.33 5.87602 15.2949 6.00731C15.2598 6.1386 15.2509 6.27551 15.2688 6.41023C15.2866 6.54495 15.3308 6.67484 15.3988 6.79248C15.4669 6.91011 15.5574 7.0132 15.6653 7.09585C15.7732 7.17849 15.8963 7.23908 16.0276 7.27416ZM26.6253 19.6063C26.3947 21.3589 25.5341 22.9675 24.2041 24.1319C22.8741 25.2962 21.1657 25.9366 19.3981 25.9334C9.12879 25.9334 0.773693 17.5783 0.773693 7.30908C0.770525 5.54143 1.41091 3.83307 2.57526 2.50308C3.7396 1.17308 5.34826 0.312401 7.1008 0.0817869C7.54398 0.027674 7.99277 0.11834 8.38018 0.34025C8.76759 0.56216 9.07284 0.903412 9.25037 1.31306L11.9819 7.41125V7.42677C12.1179 7.74035 12.174 8.08271 12.1453 8.42327C12.1167 8.76384 12.0041 9.092 11.8177 9.37845C11.7944 9.41337 11.7698 9.4457 11.744 9.47804L9.05119 12.67C10.0199 14.6385 12.0789 16.6795 14.0733 17.6508L17.2213 14.9722C17.2522 14.9462 17.2846 14.9221 17.3183 14.8998C17.6045 14.7089 17.9338 14.5924 18.2764 14.5608C18.619 14.5291 18.964 14.5834 19.2804 14.7187L19.2972 14.7265L25.3902 17.4568C25.8006 17.6337 26.1427 17.9386 26.3653 18.3261C26.5879 18.7136 26.6792 19.1627 26.6253 19.6063ZM24.5715 19.3477H24.5573L18.4785 16.6251L15.3292 19.3037C15.2986 19.3296 15.2667 19.3537 15.2334 19.3761C14.9357 19.5748 14.5914 19.6928 14.2344 19.7186C13.8773 19.7445 13.5197 19.6773 13.1964 19.5236C10.7739 18.3531 8.35924 15.9565 7.18746 13.5599C7.03229 13.2389 6.96267 12.8834 6.98533 12.5276C7.00799 12.1718 7.12216 11.828 7.31679 11.5293C7.33873 11.4942 7.36338 11.4609 7.39052 11.4297L10.0859 8.23383L7.36982 2.15504C7.36931 2.14988 7.36931 2.14468 7.36982 2.13952C6.11559 2.30313 4.96402 2.91833 4.13075 3.86992C3.29748 4.82152 2.83968 6.04423 2.84307 7.30908C2.84786 11.6983 4.59358 15.9063 7.69721 19.0099C10.8008 22.1136 15.0089 23.8593 19.3981 23.8641C20.6621 23.8684 21.8845 23.4122 22.8367 22.5807C23.7888 21.7493 24.4055 20.5995 24.5715 19.3464V19.3477Z" fill="#007CFB"/>
</g>
<defs>
<clipPath id="clip0_393_499">
<rect width="25.8667" height="25.8669" fill="white" transform="translate(0.773682 0.0665283)"/>
</clipPath>
</defs>
</svg>
