<svg width="25" height="24" viewBox="0 0 25 24" fill="none" xmlns="http://www.w3.org/2000/svg">
<path d="M11.1076 13.8L8.95757 11.65C8.77423 11.4667 8.5409 11.375 8.25757 11.375C7.97424 11.375 7.7409 11.4667 7.55757 11.65C7.37424 11.8333 7.28257 12.0667 7.28257 12.35C7.28257 12.6333 7.37424 12.8667 7.55757 13.05L10.4076 15.9C10.6076 16.1 10.8409 16.2 11.1076 16.2C11.3742 16.2 11.6076 16.1 11.8076 15.9L17.4576 10.25C17.6409 10.0667 17.7326 9.83333 17.7326 9.55C17.7326 9.26667 17.6409 9.03333 17.4576 8.85C17.2742 8.66667 17.0409 8.575 16.7576 8.575C16.4742 8.575 16.2409 8.66667 16.0576 8.85L11.1076 13.8ZM12.5076 22C11.1242 22 9.82424 21.7373 8.60757 21.212C7.3909 20.6867 6.33257 19.9743 5.43257 19.075C4.53257 18.175 3.82024 17.1167 3.29557 15.9C2.7709 14.6833 2.50824 13.3833 2.50757 12C2.50757 10.6167 2.77024 9.31667 3.29557 8.1C3.8209 6.88333 4.53324 5.825 5.43257 4.925C6.33257 4.025 7.3909 3.31267 8.60757 2.788C9.82424 2.26333 11.1242 2.00067 12.5076 2C13.8909 2 15.1909 2.26267 16.4076 2.788C17.6242 3.31333 18.6826 4.02567 19.5826 4.925C20.4826 5.825 21.1952 6.88333 21.7206 8.1C22.2459 9.31667 22.5082 10.6167 22.5076 12C22.5076 13.3833 22.2449 14.6833 21.7196 15.9C21.1942 17.1167 20.4819 18.175 19.5826 19.075C18.6826 19.975 17.6242 20.6877 16.4076 21.213C15.1909 21.7383 13.8909 22.0007 12.5076 22ZM12.5076 20C14.7409 20 16.6326 19.225 18.1826 17.675C19.7326 16.125 20.5076 14.2333 20.5076 12C20.5076 9.76667 19.7326 7.875 18.1826 6.325C16.6326 4.775 14.7409 4 12.5076 4C10.2742 4 8.38257 4.775 6.83257 6.325C5.28257 7.875 4.50757 9.76667 4.50757 12C4.50757 14.2333 5.28257 16.125 6.83257 17.675C8.38257 19.225 10.2742 20 12.5076 20Z" fill="#8CD102"/>
</svg>
