<svg width="33" height="32" viewBox="0 0 33 32" fill="none" xmlns="http://www.w3.org/2000/svg">
<path d="M5.84091 23.9644C5.46313 23.9644 5.14624 23.837 4.89024 23.5821C4.63424 23.3273 4.50668 23.0122 4.50757 22.637C4.50757 22.2609 4.63557 21.9454 4.89157 21.6906C5.14757 21.4357 5.46402 21.3087 5.84091 21.3096H27.1742C27.552 21.3096 27.8689 21.437 28.1249 21.6919C28.3809 21.9468 28.5085 22.2618 28.5076 22.637C28.5076 23.0131 28.3796 23.3286 28.1236 23.5834C27.8676 23.8383 27.5511 23.9653 27.1742 23.9644H5.84091ZM5.84091 17.3274C5.46313 17.3274 5.14624 17.2 4.89024 16.9451C4.63424 16.6903 4.50668 16.3752 4.50757 16C4.50757 15.6239 4.63557 15.3084 4.89157 15.0536C5.14757 14.7987 5.46402 14.6717 5.84091 14.6726H27.1742C27.552 14.6726 27.8689 14.8 28.1249 15.0549C28.3809 15.3098 28.5085 15.6248 28.5076 16C28.5076 16.3761 28.3796 16.6916 28.1236 16.9464C27.8676 17.2013 27.5511 17.3283 27.1742 17.3274H5.84091ZM5.84091 10.6904C5.46313 10.6904 5.14624 10.563 4.89024 10.3081C4.63424 10.0533 4.50668 9.73823 4.50757 9.36302C4.50757 8.98692 4.63557 8.67144 4.89157 8.41658C5.14757 8.16172 5.46402 8.03473 5.84091 8.03562H27.1742C27.552 8.03562 27.8689 8.16305 28.1249 8.41791C28.3809 8.67277 28.5085 8.98781 28.5076 9.36302C28.5076 9.73911 28.3796 10.0546 28.1236 10.3095C27.8676 10.5643 27.5511 10.6913 27.1742 10.6904H5.84091Z" fill="#202020"/>
</svg>
