<svg width="32" height="32" viewBox="0 0 32 32" fill="none" xmlns="http://www.w3.org/2000/svg">
<g clip-path="url(#clip0_486_9)">
<path d="M16 30.5396C15.7267 30.2181 15.3851 29.8094 14.9939 29.3275C13.9563 28.049 12.5743 26.2596 11.1942 24.2142C9.81232 22.166 8.44415 19.8784 7.42436 17.6021C6.39895 15.3132 5.75809 13.1062 5.75809 11.2C5.75809 5.53711 10.3372 0.958043 16 0.958043C21.6629 0.958043 26.242 5.53711 26.242 11.2C26.242 13.1062 25.6011 15.3132 24.5757 17.6021C23.556 19.8784 22.1878 22.166 20.8059 24.2142C19.4258 26.2596 18.0438 28.049 17.0062 29.3275C16.615 29.8094 16.2734 30.2181 16 30.5396ZM12.4942 14.7059C13.424 15.6357 14.6851 16.158 16 16.158C17.315 16.158 18.5761 15.6357 19.5059 14.7059C20.4357 13.7761 20.9581 12.515 20.9581 11.2C20.9581 9.88504 20.4357 8.62395 19.5059 7.69413C18.5761 6.76432 17.315 6.24196 16 6.24196C14.6851 6.24196 13.424 6.76432 12.4942 7.69413C11.5644 8.62395 11.042 9.88504 11.042 11.2C11.042 12.515 11.5644 13.7761 12.4942 14.7059Z" stroke="#8CD102" stroke-width="1.91609"/>
</g>
<defs>
<clipPath id="clip0_486_9">
<rect width="32" height="32" fill="white"/>
</clipPath>
</defs>
</svg>
