<svg width="19" height="26" viewBox="0 0 19 26" fill="none" xmlns="http://www.w3.org/2000/svg">
<path d="M9.0535 24.4689C8.86052 24.2399 8.63438 23.9676 8.38278 23.6576C7.54635 22.627 6.4327 21.185 5.32094 19.5372C4.20734 17.8867 3.10747 16.0471 2.28892 14.22C1.46475 12.3803 0.958043 10.6236 0.958043 9.11994C0.958043 4.64376 4.57732 1.02448 9.0535 1.02448C13.5297 1.02448 17.149 4.64376 17.149 9.11994C17.149 10.6236 16.6423 12.3803 15.8181 14.22C14.9995 16.0471 13.8997 17.8867 12.7861 19.5372C11.6743 21.185 10.5607 22.627 9.72423 23.6576C9.47263 23.9676 9.24649 24.2399 9.0535 24.4689ZM6.08971 12.0837C6.87576 12.8698 7.94187 13.3114 9.0535 13.3114C10.1651 13.3114 11.2313 12.8698 12.0173 12.0837C12.8033 11.2977 13.2449 10.2316 13.2449 9.11994C13.2449 8.0083 12.8033 6.94219 12.0173 6.15615C11.2313 5.3701 10.1651 4.9285 9.0535 4.9285C7.94187 4.9285 6.87576 5.3701 6.08971 6.15615C5.30366 6.94219 4.86207 8.0083 4.86207 9.11994C4.86207 10.2316 5.30366 11.2977 6.08971 12.0837Z" stroke="#007CFB" stroke-width="1.91609"/>
</svg>
