<?xml version="1.0" standalone="no"?>
<!DOCTYPE svg PUBLIC "-//W3C//DTD SVG 20010904//EN"
 "http://www.w3.org/TR/2001/REC-SVG-20010904/DTD/svg10.dtd">
<svg version="1.0" xmlns="http://www.w3.org/2000/svg"
 width="512.000000pt" height="512.000000pt" viewBox="0 0 512.000000 512.000000"
 preserveAspectRatio="xMidYMid meet">

<g transform="translate(0.000000,512.000000) scale(0.100000,-0.100000)"
fill="#000000" stroke="none">
<path d="M1338 5102 c-58 -35 -58 -39 -58 -526 l0 -446 -106 0 c-103 0 -106
-1 -134 -28 -37 -38 -43 -81 -39 -286 l4 -166 33 -32 32 -33 239 -5 238 -5
306 -195 c168 -107 305 -199 304 -203 -1 -4 -155 -105 -342 -225 -402 -257
-400 -255 -400 -387 0 -129 -2 -127 399 -384 186 -120 339 -221 339 -226 0 -6
-146 -103 -324 -217 l-324 -208 -185 0 c-252 0 -252 0 -260 -204 l-5 -129 -60
-14 c-196 -45 -363 -199 -431 -398 -34 -101 -38 -246 -10 -340 84 -280 334
-460 616 -442 192 13 381 126 475 286 l30 51 887 0 888 0 21 -43 c32 -61 163
-187 236 -225 260 -137 572 -70 754 161 45 57 49 88 14 122 -43 43 -73 34
-142 -43 -175 -196 -458 -214 -645 -42 -193 177 -197 477 -8 654 263 247 684
107 751 -249 11 -60 43 -105 74 -105 29 0 64 23 75 50 16 38 -11 156 -56 250
-27 55 -57 95 -113 150 -87 86 -165 132 -273 159 l-73 19 -5 137 -5 137 -33
29 -32 29 -163 0 -162 0 -320 205 c-176 113 -323 209 -328 214 -5 5 91 72 215
151 552 354 523 328 523 466 0 71 -3 85 -28 123 -30 45 -28 44 -485 336 -185
119 -230 151 -220 161 7 7 147 98 311 203 l298 191 200 0 c293 0 289 -4 289
280 0 254 -5 262 -169 270 l-106 5 -5 455 c-4 344 -8 460 -18 477 -31 56 29
53 -1264 53 -1106 -1 -1195 -2 -1220 -18z m742 -327 l0 -195 -325 0 -325 0 0
195 0 195 325 0 325 0 0 -195z m810 0 l0 -195 -330 0 -330 0 0 195 0 195 330
0 330 0 0 -195z m800 0 l0 -195 -325 0 -325 0 0 195 0 195 325 0 325 0 0 -195z
m-1610 -495 l0 -150 -322 2 -323 3 -3 148 -3 147 326 0 325 0 0 -150z m808 3
l-3 -148 -325 0 -325 0 -3 134 c-1 74 0 141 2 148 4 10 73 13 331 13 l326 0
-3 -147z m802 -3 l0 -150 -325 0 -325 0 0 150 0 150 325 0 325 0 0 -150z m280
-425 l0 -125 -1407 2 -1408 3 -3 123 -3 122 1411 0 1410 0 0 -125z m-1128
-751 c408 -262 749 -483 756 -492 22 -28 15 -78 -14 -101 -15 -12 -36 -21 -47
-21 -11 0 -119 64 -240 142 -122 78 -233 146 -248 152 -55 20 -109 -31 -95
-89 5 -19 29 -41 87 -77 43 -28 78 -52 77 -53 -9 -8 -523 -336 -528 -338 -10
-3 -540 337 -534 342 2 2 122 80 266 172 l262 168 31 -20 c16 -11 49 -30 72
-41 36 -18 45 -20 72 -9 36 15 52 54 39 93 -7 20 -114 93 -489 333 -263 169
-479 309 -479 311 0 2 60 4 134 4 l134 0 744 -476z m-142 415 c-52 -34 -100
-64 -107 -66 -6 -3 -58 25 -114 61 l-102 66 208 0 209 0 -94 -61z m411 -94
c-133 -85 -243 -155 -246 -155 -2 0 -34 19 -70 42 -54 33 -64 43 -53 53 7 7
85 58 172 114 l159 101 140 0 140 0 -242 -155z m-708 -397 c20 -12 37 -24 37
-27 0 -7 -509 -335 -526 -339 -7 -2 -42 16 -78 40 l-64 44 266 171 267 171 30
-19 c17 -11 47 -29 68 -41z m102 -932 c462 -296 847 -544 855 -552 12 -12 -5
-14 -120 -14 l-135 1 -740 474 c-407 261 -755 486 -772 500 -26 20 -33 33 -33
60 0 47 31 78 73 73 21 -2 327 -193 872 -542z m831 333 l65 -41 -88 -57 c-48
-31 -168 -108 -266 -171 l-179 -114 -44 25 c-25 13 -56 33 -70 44 l-26 21 259
166 c142 92 264 167 271 167 7 1 42 -18 78 -40z m-957 -610 c76 -49 94 -27
-148 -182 l-168 -108 -134 3 -134 3 115 75 c244 160 385 249 395 249 6 0 39
-18 74 -40z m329 -210 c56 -35 101 -67 102 -71 0 -5 -101 -8 -225 -8 -124 0
-225 2 -225 5 0 13 216 145 231 142 8 -2 61 -33 117 -68z m1202 -322 l0 -93
-59 -12 c-136 -28 -296 -143 -370 -266 -63 -105 -84 -178 -87 -306 l-3 -115
-829 -3 -830 -2 -4 117 c-3 89 -10 134 -27 183 -45 129 -135 245 -245 315 -57
36 -184 85 -222 85 -24 0 -24 1 -24 95 l0 95 1350 0 1350 0 0 -93z m-2665
-252 c128 -34 239 -127 298 -252 30 -64 32 -74 32 -183 0 -108 -2 -119 -32
-182 -75 -160 -240 -268 -408 -268 -272 0 -490 254 -446 518 45 263 301 433
556 367z"/>
<path d="M2264 1049 c-22 -11 -44 -48 -44 -73 0 -7 9 -25 21 -40 l20 -26 298
0 298 0 21 23 c27 29 28 67 3 98 l-19 24 -289 2 c-186 1 -296 -2 -309 -8z"/>
<path d="M1083 849 c-60 -11 -95 -32 -140 -83 -85 -96 -85 -235 -1 -331 138
-157 393 -93 439 110 40 177 -119 339 -298 304z m109 -161 c22 -11 48 -60 48
-90 0 -13 -9 -37 -20 -55 -51 -84 -190 -44 -190 55 0 85 83 131 162 90z"/>
<path d="M3927 846 c-162 -44 -240 -221 -162 -365 48 -87 126 -133 225 -133
31 0 74 7 95 16 52 22 112 80 136 131 25 53 25 156 0 210 -50 110 -179 172
-294 141z m97 -150 c43 -18 66 -51 66 -96 0 -44 -23 -78 -64 -95 -40 -17 -79
-9 -110 22 -66 66 -31 153 72 182 1 1 18 -5 36 -13z"/>
</g>
</svg>
