<?xml version="1.0" standalone="no"?>
<!DOCTYPE svg PUBLIC "-//W3C//DTD SVG 20010904//EN"
 "http://www.w3.org/TR/2001/REC-SVG-20010904/DTD/svg10.dtd">
<svg version="1.0" xmlns="http://www.w3.org/2000/svg"
 width="512.000000pt" height="512.000000pt" viewBox="0 0 512.000000 512.000000"
 preserveAspectRatio="xMidYMid meet">

<g transform="translate(0.000000,512.000000) scale(0.100000,-0.100000)"
fill="#000" stroke="none">
<path d="M3276 5104 c-145 -35 -286 -143 -353 -269 -65 -125 -453 -1006 -453
-1031 0 -27 40 -74 64 -74 32 0 64 23 81 58 9 21 112 249 227 507 116 259 225
491 244 516 65 89 203 159 313 159 154 0 303 -96 369 -238 l27 -57 3 -557 3
-558 -76 0 -75 0 0 533 0 533 -27 55 c-80 156 -278 184 -401 57 -25 -26 -234
-485 -896 -1969 l-864 -1934 -81 -3 c-45 -2 -81 0 -81 3 0 4 268 606 595 1339
379 849 595 1343 595 1363 0 22 -8 38 -26 52 -34 27 -57 26 -88 -1 -17 -16
-220 -460 -634 -1388 l-609 -1365 -50 -6 c-125 -16 -173 -86 -173 -251 l0 -78
-142 0 c-87 0 -171 -6 -213 -15 -166 -35 -300 -137 -375 -287 -47 -95 -52
-143 -17 -176 l23 -22 616 0 c587 0 617 1 639 19 28 23 32 83 6 109 -16 16
-63 17 -575 22 l-557 5 70 71 c52 53 85 77 130 95 l60 24 710 0 710 0 41 -22
c51 -27 107 -91 121 -138 l11 -35 -248 0 c-235 0 -249 -1 -274 -21 -19 -15
-26 -30 -26 -54 0 -24 7 -39 26 -54 26 -20 38 -21 336 -21 l309 0 24 25 c30
29 30 36 4 137 -25 101 -56 162 -107 215 -85 87 -185 123 -344 123 l-98 0 0
93 c0 68 -5 103 -19 133 -20 44 -60 81 -98 90 -19 5 -23 11 -19 28 10 38 1676
3760 1694 3785 37 50 104 52 148 4 l24 -26 0 -522 0 -522 -30 -6 c-54 -11 -60
-39 -60 -289 l0 -223 -65 -23 c-330 -119 -660 -414 -822 -736 -91 -180 -106
-239 -225 -861 -89 -469 -101 -543 -101 -640 0 -127 18 -212 69 -323 110 -241
333 -410 594 -452 54 -8 267 -10 765 -8 684 4 691 4 764 26 149 46 263 115
367 224 110 114 187 260 213 402 18 98 14 262 -9 352 -83 323 -334 550 -672
608 l-38 7 0 225 0 225 -25 24 c-30 30 -64 32 -99 4 l-26 -20 0 -229 0 -229
-37 -7 c-220 -37 -405 -145 -530 -309 -115 -151 -165 -298 -166 -490 -1 -94 4
-138 21 -203 42 -158 148 -326 263 -420 l52 -42 -394 0 c-297 0 -410 4 -459
14 -235 50 -425 232 -486 467 -32 120 -23 214 58 639 l73 385 430 5 c409 5
432 6 475 26 59 27 107 76 136 139 l24 50 0 527 c0 493 1 527 18 532 36 11
140 26 224 32 118 9 169 -6 228 -65 65 -66 70 -91 70 -355 l0 -227 25 -24 c31
-32 69 -32 101 0 l25 26 -3 257 -3 257 -31 65 c-33 69 -106 150 -155 170 l-29
12 0 215 c0 214 0 214 -25 238 -13 14 -31 25 -40 25 -13 0 -15 60 -15 543 0
455 -2 552 -15 601 -75 288 -373 469 -659 400z m604 -1837 l0 -143 -122 -13
c-68 -7 -140 -15 -160 -18 l-38 -5 0 161 0 161 160 0 160 0 0 -143z m-470
-881 c0 -491 0 -493 -22 -521 -42 -54 -54 -55 -474 -55 l-387 0 6 43 c20 140
112 362 215 516 79 119 243 281 367 364 95 63 255 146 283 147 9 0 12 -105 12
-494z m924 -936 c234 -60 427 -253 481 -482 19 -82 19 -238 0 -313 -57 -223
-232 -408 -450 -475 -159 -48 -327 -34 -485 42 -70 33 -100 56 -170 127 -137
138 -194 276 -194 466 0 197 83 373 235 502 158 133 383 184 583 133z m-2720
-786 c3 -9 6 -49 6 -90 l0 -74 -280 0 -280 0 0 78 c0 47 5 83 12 90 9 9 84 12
274 12 230 0 263 -2 268 -16z"/>
<path d="M4089 1137 c-150 -43 -249 -170 -249 -322 0 -149 84 -271 222 -321
59 -22 161 -22 226 0 69 23 153 100 189 174 24 49 28 69 28 142 0 102 -28 173
-95 240 -80 80 -216 117 -321 87z m156 -156 c99 -46 139 -143 100 -239 -52
-122 -193 -156 -292 -69 -157 138 3 396 192 308z"/>
</g>
</svg>
